<svg width="15" height="14" viewBox="0 0 15 14" fill="none" xmlns="http://www.w3.org/2000/svg">
<path d="M4.63281 7C3.78906 7.02604 3.09896 7.35938 2.5625 8H1.51562C1.08854 8 0.729167 7.89583 0.4375 7.6875C0.145833 7.47396 0 7.16406 0 6.75781C0 4.91927 0.322917 4 0.96875 4C1 4 1.11198 4.05469 1.30469 4.16406C1.5026 4.27344 1.75781 4.38542 2.07031 4.5C2.38281 4.60938 2.69271 4.66406 3 4.66406C3.34896 4.66406 3.69531 4.60417 4.03906 4.48437C4.01302 4.67708 4 4.84896 4 5C4 5.72396 4.21094 6.39063 4.63281 7ZM13 11.9766C13 12.6016 12.8099 13.0938 12.4297 13.4531C12.0495 13.8177 11.5443 14 10.9141 14H4.08594C3.45573 14 2.95052 13.8177 2.57031 13.4531C2.1901 13.0938 2 12.6016 2 11.9766C2 11.7005 2.00781 11.4323 2.02344 11.1719C2.04427 10.9062 2.08073 10.6224 2.13281 10.3203C2.1901 10.013 2.26042 9.72917 2.34375 9.46875C2.42708 9.20833 2.53906 8.95573 2.67969 8.71094C2.82031 8.46094 2.98177 8.25 3.16406 8.07812C3.34635 7.90104 3.56771 7.76042 3.82812 7.65625C4.09375 7.55208 4.38542 7.5 4.70312 7.5C4.75521 7.5 4.86719 7.55729 5.03906 7.67187C5.21094 7.78125 5.40104 7.90625 5.60937 8.04688C5.81771 8.18229 6.09635 8.30729 6.44531 8.42187C6.79427 8.53125 7.14583 8.58594 7.5 8.58594C7.85417 8.58594 8.20573 8.53125 8.55469 8.42187C8.90365 8.30729 9.18229 8.18229 9.39062 8.04688C9.59896 7.90625 9.78906 7.78125 9.96094 7.67187C10.1328 7.55729 10.2448 7.5 10.2969 7.5C10.6146 7.5 10.9036 7.55208 11.1641 7.65625C11.4297 7.76042 11.6536 7.90104 11.8359 8.07812C12.0182 8.25 12.1797 8.46094 12.3203 8.71094C12.4609 8.95573 12.5729 9.20833 12.6563 9.46875C12.7396 9.72917 12.8073 10.013 12.8594 10.3203C12.9167 10.6224 12.9531 10.9062 12.9687 11.1719C12.9896 11.4323 13 11.7005 13 11.9766ZM4.41406 0.585938C4.80469 0.976563 5 1.44792 5 2C5 2.55208 4.80469 3.02344 4.41406 3.41406C4.02344 3.80469 3.55208 4 3 4C2.44792 4 1.97656 3.80469 1.58594 3.41406C1.19531 3.02344 1 2.55208 1 2C1 1.44792 1.19531 0.976563 1.58594 0.585938C1.97656 0.195312 2.44792 -1.19209e-07 3 -1.19209e-07C3.55208 -1.19209e-07 4.02344 0.195312 4.41406 0.585938ZM9.61719 2.88281C10.2057 3.46615 10.5 4.17188 10.5 5C10.5 5.82813 10.2057 6.53646 9.61719 7.125C9.03385 7.70833 8.32813 8 7.5 8C6.67188 8 5.96354 7.70833 5.375 7.125C4.79167 6.53646 4.5 5.82813 4.5 5C4.5 4.17188 4.79167 3.46615 5.375 2.88281C5.96354 2.29427 6.67188 2 7.5 2C8.32813 2 9.03385 2.29427 9.61719 2.88281ZM15 6.75781C15 7.16406 14.8542 7.47396 14.5625 7.6875C14.2708 7.89583 13.9115 8 13.4844 8H12.4375C11.901 7.35938 11.2109 7.02604 10.3672 7C10.7891 6.39063 11 5.72396 11 5C11 4.84896 10.987 4.67708 10.9609 4.48437C11.3047 4.60417 11.651 4.66406 12 4.66406C12.3073 4.66406 12.6172 4.60938 12.9297 4.5C13.2422 4.38542 13.4948 4.27344 13.6875 4.16406C13.8854 4.05469 14 4 14.0313 4C14.6771 4 15 4.91927 15 6.75781ZM13.4141 0.585938C13.8047 0.976563 14 1.44792 14 2C14 2.55208 13.8047 3.02344 13.4141 3.41406C13.0234 3.80469 12.5521 4 12 4C11.4479 4 10.9766 3.80469 10.5859 3.41406C10.1953 3.02344 10 2.55208 10 2C10 1.44792 10.1953 0.976563 10.5859 0.585938C10.9766 0.195312 11.4479 -1.19209e-07 12 -1.19209e-07C12.5521 -1.19209e-07 13.0234 0.195312 13.4141 0.585938Z" fill="#555555"/>
</svg>
